<svg width="0" height="0" class="hidden">
	<symbol xmlns="http://www.w3.org/2000/svg" version="1" viewBox="0 0 314.068 314.068" shape-rendering="geometricPrecision" text-rendering="geometricPrecision" image-rendering="optimizeQuality" fill-rule="evenodd" clip-rule="evenodd" id="play">
		<path d="M293.002,78.53C249.646,3.435,153.618-22.296,78.529,21.068C3.434,64.418-22.298,160.442,21.066,235.534 c43.35,75.095,139.375,100.83,214.465,57.47C310.627,249.639,336.371,153.62,293.002,78.53z M219.834,265.801 c-60.067,34.692-136.894,14.106-171.576-45.973C13.568,159.761,34.161,82.935,94.23,48.26 c60.071-34.69,136.894-14.106,171.578,45.971C300.493,154.307,279.906,231.117,219.834,265.801z M213.555,150.652l-82.214-47.949 c-7.492-4.374-13.535-0.877-13.493,7.789l0.421,95.174c0.038,8.664,6.155,12.191,13.669,7.851l81.585-47.103 C221.029,162.082,221.045,155.026,213.555,150.652z" fill-rule="nonzero"/>
	</symbol>

	<symbol xmlns="http://www.w3.org/2000/svg" version="1" viewBox="0 0 512 512" shape-rendering="geometricPrecision" text-rendering="geometricPrecision" image-rendering="optimizeQuality" fill-rule="evenodd" clip-rule="evenodd" id="location">
		<path d="M256,0C153.755,0,70.573,83.182,70.573,185.426c0,126.888,165.939,313.167,173.004,321.035 c6.636,7.391,18.222,7.378,24.846,0c7.065-7.868,173.004-194.147,173.004-321.035C441.425,83.182,358.244,0,256,0z M256,278.719 c-51.442,0-93.292-41.851-93.292-93.293S204.559,92.134,256,92.134s93.291,41.851,93.291,93.293S307.441,278.719,256,278.719z" fill-rule="nonzero"/>
	</symbol>

	<symbol xmlns="http://www.w3.org/2000/svg" version="1" viewBox="0 0 480.56 480.56" shape-rendering="geometricPrecision" text-rendering="geometricPrecision" image-rendering="optimizeQuality" fill-rule="evenodd" clip-rule="evenodd" id="phone">
		<path d="M365.354,317.9c-15.7-15.5-35.3-15.5-50.9,0c-11.9,11.8-23.8,23.6-35.5,35.6c-3.2,3.3-5.9,4-9.8,1.8 c-7.7-4.2-15.9-7.6-23.3-12.2c-34.5-21.7-63.4-49.6-89-81c-12.7-15.6-24-32.3-31.9-51.1c-1.6-3.8-1.3-6.3,1.8-9.4 c11.9-11.5,23.5-23.3,35.2-35.1c16.3-16.4,16.3-35.6-0.1-52.1c-9.3-9.4-18.6-18.6-27.9-28c-9.6-9.6-19.1-19.3-28.8-28.8 c-15.7-15.3-35.3-15.3-50.9,0.1c-12,11.8-23.5,23.9-35.7,35.5c-11.3,10.7-17,23.8-18.2,39.1c-1.9,24.9,4.2,48.4,12.8,71.3 c17.6,47.4,44.4,89.5,76.9,128.1c43.9,52.2,96.3,93.5,157.6,123.3c27.6,13.4,56.2,23.7,87.3,25.4c21.4,1.2,40-4.2,54.9-20.9 c10.2-11.4,21.7-21.8,32.5-32.7c16-16.2,16.1-35.8,0.2-51.8C403.554,355.9,384.454,336.9,365.354,317.9z" fill-rule="nonzero"/>
		<path d="M346.254,238.2l36.9-6.3c-5.8-33.9-21.8-64.6-46.1-89c-25.7-25.7-58.2-41.9-94-46.9l-5.2,37.1 c27.7,3.9,52.9,16.4,72.8,36.3C329.454,188.2,341.754,212,346.254,238.2z" fill-rule="nonzero"/>
		<path d="M403.954,77.8c-42.6-42.6-96.5-69.5-156-77.8l-5.2,37.1c51.4,7.2,98,30.5,134.8,67.2c34.9,34.9,57.8,79,66.1,127.5 l36.9-6.3C470.854,169.3,444.354,118.3,403.954,77.8z" fill-rule="nonzero"/>
	</symbol>

	<symbol xmlns="http://www.w3.org/2000/svg" version="1" viewBox="0 0 550.795 550.795" shape-rendering="geometricPrecision" text-rendering="geometricPrecision" image-rendering="optimizeQuality" fill-rule="evenodd" clip-rule="evenodd" id="envelope">
		<path d="M501.613,491.782c12.381,0,23.109-4.088,32.229-12.16L377.793,323.567c-3.744,2.681-7.373,5.288-10.801,7.767 c-11.678,8.604-21.156,15.318-28.434,20.129c-7.277,4.822-16.959,9.737-29.045,14.755c-12.094,5.024-23.361,7.528-33.813,7.528 h-0.306h-0.306c-10.453,0-21.72-2.503-33.813-7.528c-12.093-5.018-21.775-9.933-29.045-14.755 c-7.277-4.811-16.75-11.524-28.434-20.129c-3.256-2.387-6.867-5.006-10.771-7.809L16.946,479.622 c9.119,8.072,19.854,12.16,32.234,12.16H501.613z" fill-rule="nonzero"/>
		<path d="M31.047,225.299C19.37,217.514,9.015,208.598,0,198.555V435.98l137.541-137.541 C110.025,279.229,74.572,254.877,31.047,225.299z" fill-rule="nonzero"/>
		<path d="M520.059,225.299c-41.865,28.336-77.447,52.73-106.75,73.195l137.486,137.492V198.555 C541.98,208.396,531.736,217.306,520.059,225.299z" fill-rule="nonzero"/>
		<path d="M501.613,59.013H49.181c-15.784,0-27.919,5.33-36.42,15.979C4.253,85.646,0.006,98.97,0.006,114.949 c0,12.907,5.636,26.892,16.903,41.959c11.267,15.061,23.256,26.891,35.961,35.496c6.965,4.921,27.969,19.523,63.012,43.801 c18.917,13.109,35.368,24.535,49.505,34.395c12.05,8.396,22.442,15.667,31.022,21.701c0.985,0.691,2.534,1.799,4.59,3.269 c2.215,1.591,5.018,3.61,8.476,6.107c6.659,4.816,12.191,8.709,16.597,11.683c4.4,2.975,9.731,6.298,15.985,9.988 c6.249,3.685,12.143,6.456,17.675,8.299c5.533,1.842,10.655,2.766,15.367,2.766h0.306h0.306c4.711,0,9.834-0.924,15.368-2.766 c5.531-1.843,11.42-4.608,17.674-8.299c6.248-3.69,11.572-7.02,15.986-9.988c4.406-2.974,9.938-6.866,16.598-11.683 c3.451-2.497,6.254-4.517,8.469-6.102c2.057-1.476,3.605-2.577,4.596-3.274c6.684-4.651,17.1-11.892,31.104-21.616 c25.482-17.705,63.01-43.764,112.742-78.281c14.957-10.447,27.453-23.054,37.496-37.803c10.025-14.749,15.051-30.22,15.051-46.408 c0-13.525-4.873-25.098-14.598-34.737C526.461,63.829,514.932,59.013,501.613,59.013z" fill-rule="nonzero"/>
	</symbol>

	<symbol xmlns="http://www.w3.org/2000/svg" version="1" viewBox="0 0 512 512" shape-rendering="geometricPrecision" text-rendering="geometricPrecision" image-rendering="optimizeQuality" fill-rule="evenodd" clip-rule="evenodd" id="burger">
		<path d="M491.318,235.318H20.682C9.26,235.318,0,244.577,0,256s9.26,20.682,20.682,20.682h470.636 c11.423,0,20.682-9.259,20.682-20.682C512,244.578,502.741,235.318,491.318,235.318z" fill-rule="nonzero"/>
		<path d="M491.318,78.439H20.682C9.26,78.439,0,87.699,0,99.121c0,11.422,9.26,20.682,20.682,20.682h470.636 c11.423,0,20.682-9.26,20.682-20.682C512,87.699,502.741,78.439,491.318,78.439z" fill-rule="nonzero"/>
		<path d="M491.318,392.197H20.682C9.26,392.197,0,401.456,0,412.879s9.26,20.682,20.682,20.682h470.636 c11.423,0,20.682-9.259,20.682-20.682S502.741,392.197,491.318,392.197z" fill-rule="nonzero"/>
	</symbol>

	<symbol xmlns="http://www.w3.org/2000/svg" version="1" viewBox="0 0 512 512" shape-rendering="geometricPrecision" text-rendering="geometricPrecision" image-rendering="optimizeQuality" fill-rule="evenodd" clip-rule="evenodd" id="instagram">
		<path d="M352,0H160C71.648,0,0,71.648,0,160v192c0,88.352,71.648,160,160,160h192c88.352,0,160-71.648,160-160V160 C512,71.648,440.352,0,352,0z M464,352c0,61.76-50.24,112-112,112H160c-61.76,0-112-50.24-112-112V160C48,98.24,98.24,48,160,48 h192c61.76,0,112,50.24,112,112V352z" fill-rule="nonzero"/>
		<path d="M256,128c-70.688,0-128,57.312-128,128s57.312,128,128,128s128-57.312,128-128S326.688,128,256,128z M256,336 c-44.096,0-80-35.904-80-80c0-44.128,35.904-80,80-80s80,35.872,80,80C336,300.096,300.096,336,256,336z" fill-rule="nonzero"/>
		<circle cx="393.6" cy="118.4" r="17.056" fill-rule="nonzero"/>
	</symbol>

	<symbol xmlns="http://www.w3.org/2000/svg" version="1" viewBox="0 0 96.124 96.123" shape-rendering="geometricPrecision" text-rendering="geometricPrecision" image-rendering="optimizeQuality" fill-rule="evenodd" clip-rule="evenodd" id="facebook">
		<path d="M72.089,0.02L59.624,0C45.62,0,36.57,9.285,36.57,23.656v10.907H24.037c-1.083,0-1.96,0.878-1.96,1.961v15.803 c0,1.083,0.878,1.96,1.96,1.96h12.533v39.876c0,1.083,0.877,1.96,1.96,1.96h16.352c1.083,0,1.96-0.878,1.96-1.96V54.287h14.654 c1.083,0,1.96-0.877,1.96-1.96l0.006-15.803c0-0.52-0.207-1.018-0.574-1.386c-0.367-0.368-0.867-0.575-1.387-0.575H56.842v-9.246 c0-4.444,1.059-6.7,6.848-6.7l8.397-0.003c1.082,0,1.959-0.878,1.959-1.96V1.98C74.046,0.899,73.17,0.022,72.089,0.02z" fill-rule="nonzero"/>
	</symbol>

	<symbol xmlns="http://www.w3.org/2000/svg" version="1" viewBox="0 0 18.875 18.875" shape-rendering="geometricPrecision" text-rendering="geometricPrecision" image-rendering="optimizeQuality" fill-rule="evenodd" clip-rule="evenodd" id="youtube">
		<path d="M17.905,10.877v5.564c0,0.348-0.073,0.665-0.221,0.956c-0.147,0.293-0.348,0.549-0.603,0.769c-0.254,0.221-0.547,0.392-0.88,0.519c-0.335,0.126-0.695,0.19-1.083,0.19H3.745c-0.379,0-0.736-0.064-1.07-0.19c-0.334-0.127-0.628-0.298-0.881-0.519c-0.252-0.22-0.455-0.476-0.604-0.769c-0.147-0.291-0.22-0.608-0.22-0.956v-5.564c0-0.33,0.073-0.645,0.221-0.944c0.148-0.3,0.352-0.559,0.604-0.773c0.253-0.215,0.547-0.39,0.881-0.52s0.691-0.196,1.07-0.196h11.373c0.379,0,0.737,0.066,1.076,0.196c0.338,0.13,0.633,0.305,0.887,0.52c0.255,0.215,0.455,0.474,0.603,0.773S17.905,10.547,17.905,10.877z M4.507,17.062v-5.869h1.395v-0.887H2.136v0.862h1.207v5.894H4.507z M5.076,3.409L3.517,0h1.357L5.65,2.548L6.423,0h1.355l-1.46,3.409v3.97H5.076V3.409z M8.741,12.055H7.576v3.133c0,0.227,0.002,0.403,0.011,0.524c0.008,0.124-0.009,0.202-0.051,0.235c-0.035,0.135-0.133,0.234-0.3,0.298c-0.161,0.062-0.286-0.026-0.373-0.273c-0.018-0.033-0.02-0.116-0.011-0.246c0.008-0.132,0.011-0.303,0.011-0.515l-0.024-3.156H5.673L5.7,15.162c0,0.244-0.006,0.448-0.014,0.613S5.68,16.064,5.7,16.149c0.016,0.137,0.031,0.281,0.049,0.438c0.016,0.155,0.096,0.281,0.242,0.374c0.135,0.084,0.293,0.128,0.473,0.128c0.184,0,0.362-0.031,0.534-0.091c0.175-0.06,0.333-0.141,0.481-0.245c0.147-0.105,0.256-0.219,0.322-0.337l-0.023,0.62l0.963,0.025V12.055z M7.675,3.93c0-0.465,0.045-0.851,0.127-1.152C7.906,2.464,8.069,2.24,8.298,2.104C8.527,1.935,8.818,1.85,9.173,1.85c0.312,0,0.572,0.052,0.786,0.152c0.21,0.085,0.384,0.232,0.519,0.444c0.102,0.154,0.179,0.325,0.229,0.521c0.048,0.211,0.075,0.494,0.075,0.85v1.329c0,0.483-0.027,0.829-0.075,1.042c-0.02,0.193-0.102,0.409-0.256,0.646c-0.151,0.21-0.315,0.35-0.492,0.418C9.745,7.354,9.507,7.403,9.235,7.403c-0.276,0-0.533-0.042-0.759-0.127c-0.213-0.067-0.37-0.19-0.469-0.366C7.906,6.772,7.82,6.584,7.751,6.338c-0.049-0.23-0.076-0.573-0.076-1.039V3.93z M8.715,5.996c0,0.135,0.051,0.256,0.153,0.362c0.1,0.104,0.224,0.157,0.366,0.157c0.134,0,0.256-0.05,0.362-0.152c0.106-0.1,0.157-0.224,0.157-0.367V3.245c0-0.152-0.051-0.279-0.157-0.385C9.491,2.754,9.368,2.7,9.235,2.7c-0.135,0-0.256,0.054-0.36,0.16c-0.106,0.106-0.16,0.233-0.16,0.385V5.996z M12.505,15.63v-2.599c0-0.498-0.176-0.854-0.53-1.064c-0.118-0.067-0.256-0.102-0.407-0.102c-0.28,0-0.6,0.131-0.963,0.393v-1.952H9.439v6.706l0.964-0.025l0.075-0.418c0.313,0.263,0.596,0.423,0.843,0.482c0.251,0.058,0.46,0.035,0.634-0.071c0.174-0.104,0.309-0.277,0.405-0.52C12.456,16.22,12.505,15.941,12.505,15.63z M11.1,12.512c0.135,0,0.253,0.04,0.36,0.121c0.105,0.08,0.158,0.171,0.158,0.271v2.942c0,0.101-0.053,0.188-0.158,0.265c-0.107,0.076-0.226,0.115-0.36,0.115c-0.137,0-0.256-0.039-0.364-0.115c-0.104-0.076-0.155-0.164-0.155-0.265v-2.942c0-0.101,0.052-0.191,0.155-0.271C10.844,12.552,10.963,12.512,11.1,12.512z M11.643,6.859c-0.03-0.068-0.054-0.14-0.062-0.21c-0.01-0.071-0.021-0.142-0.04-0.209c-0.016-0.085-0.024-0.199-0.024-0.344V5.54V2.055h1.09v4.03c0,0.103,0.037,0.189,0.113,0.267c0.079,0.075,0.178,0.114,0.305,0.114c0.119,0,0.22-0.039,0.304-0.114c0.086-0.077,0.13-0.164,0.13-0.267v-4.03h1.011v5.172h-1.29l0.023-0.418c-0.119,0.168-0.231,0.3-0.342,0.392c-0.135,0.084-0.282,0.127-0.444,0.127c-0.193,0-0.355-0.043-0.482-0.127C11.824,7.126,11.727,7.011,11.643,6.859z M16.181,15.302h-0.873v0.126v0.443c0,0.136-0.049,0.24-0.146,0.316c-0.097,0.077-0.213,0.113-0.347,0.113h-0.181c-0.134,0-0.244-0.036-0.334-0.113c-0.089-0.076-0.135-0.181-0.135-0.316v-0.05v-0.495v-0.66h2.016v-0.697c0-0.261-0.004-0.513-0.013-0.753c-0.008-0.242-0.028-0.43-0.062-0.563c-0.034-0.23-0.136-0.414-0.312-0.553c-0.172-0.139-0.374-0.234-0.607-0.284c-0.232-0.053-0.469-0.061-0.711-0.026c-0.24,0.034-0.447,0.113-0.628,0.24c-0.226,0.152-0.39,0.36-0.493,0.623c-0.102,0.26-0.152,0.624-0.152,1.09v1.56c0,0.657,0.175,1.128,0.521,1.406c0.32,0.261,0.657,0.393,1.012,0.393c0.035,0,0.068,0,0.104,0c0.398-0.024,0.748-0.194,1.053-0.507c0.228-0.228,0.342-0.529,0.342-0.899C16.222,15.576,16.208,15.444,16.181,15.302z M15.281,13.816h-1.115l0.025-0.619c0-0.136,0.051-0.246,0.152-0.337c0.102-0.089,0.223-0.134,0.369-0.134h0.051c0.15,0,0.279,0.043,0.386,0.127c0.104,0.085,0.159,0.199,0.159,0.344L15.281,13.816z" fill-rule="nonzero"/>
	</symbol>

	<symbol xmlns="http://www.w3.org/2000/svg" version="1" viewBox="0 0 512 512" shape-rendering="geometricPrecision" text-rendering="geometricPrecision" image-rendering="optimizeQuality" fill-rule="evenodd" clip-rule="evenodd" id="mountains">
		<path d="M137.829,62.485c4.143,0,7.5-3.358,7.5-7.5V40.717c0-4.142-3.357-7.5-7.5-7.5s-7.5,3.358-7.5,7.5v14.267C130.329,59.127,133.687,62.485,137.829,62.485z"/>
		<path d="M130.329,171.911v14.267c0,4.142,3.357,7.5,7.5,7.5s7.5-3.358,7.5-7.5v-14.267c0-4.142-3.357-7.5-7.5-7.5S130.329,167.769,130.329,171.911z"/>
		<path d="M91.186,77.411c2.926,2.928,7.675,2.93,10.607,0c2.929-2.929,2.929-7.678-0.001-10.607L91.703,56.716c-2.928-2.93-7.677-2.929-10.607,0c-2.929,2.929-2.929,7.678,0.001,10.607L91.186,77.411z"/>
		<path d="M184.474,149.484c-2.93-2.929-7.678-2.929-10.608,0c-2.929,2.929-2.929,7.678,0,10.607l10.089,10.089c2.93,2.929,7.678,2.929,10.608,0s2.929-7.678,0-10.607L184.474,149.484z"/>
		<path d="M65.099,120.948h14.268c4.143,0,7.5-3.358,7.5-7.5s-3.357-7.5-7.5-7.5H65.099c-4.143,0-7.5,3.358-7.5,7.5S60.956,120.948,65.099,120.948z"/>
		<path d="M188.792,113.448c0,4.142,3.357,7.5,7.5,7.5h14.268c4.143,0,7.5-3.358,7.5-7.5s-3.357-7.5-7.5-7.5h-14.268C192.15,105.948,188.792,109.306,188.792,113.448z"/>
		<path d="M91.185,149.484l-10.089,10.089c-4.741,4.741-1.316,12.804,5.304,12.804c1.919,0,3.839-0.732,5.304-2.197l10.089-10.089c2.929-2.929,2.929-7.678,0-10.607C98.863,146.555,94.115,146.555,91.185,149.484z"/>
		<path d="M184.473,77.411l10.089-10.088c2.93-2.929,2.93-7.677,0.001-10.607c-2.929-2.929-7.678-2.93-10.607,0l-10.09,10.088c-2.93,2.929-2.93,7.677-0.001,10.607C176.794,80.34,181.545,80.341,184.473,77.411z"/>
		<path d="M511.98,453.889c-0.553-13.77-13.389-24.985-27.765-22.628c-5.776-11.045,19.465,39.324-84.221-168.046l0,0l-35.54-71.08c-7.053-14.107-27.176-14.06-34.205,0c-3.186,6.373-23.974,47.949-28.283,56.564l-42.528-85.056l0,0c-6.4-12.806-24.695-12.806-31.097,0l-34.863,69.727c-1.475,2.949-5.697,2.971-7.182,0c-6.403-12.805-24.696-12.804-31.098,0L98.806,346.159l-1.528-3.057c-4.727-9.453-18.147-9.356-22.825,0V343.1c0,0.001,0,0,0,0.001L14.111,463.783H7.5c-4.143,0-7.5,3.358-7.5,7.5s3.357,7.5,7.5,7.5c8.099,0,369.663,0,377.738,0c4.143,0,7.5-3.358,7.5-7.5s-3.357-7.5-7.5-7.5h-83.082c-3.351,0-6.045-2.736-6-6.088c0.047-3.287,3.097-6.287,6.659-5.875c5.714,0.663,10.841-3.095,11.917-8.742c1.28-6.696,7.161-11.549,13.976-11.549c5.014,0,9.795,2.694,12.369,7.213c2.468,4.334,7.493,6.545,12.232,5.505c1.09-0.239,3.6-1.345,7.051-0.232c8.77,2.829,10.445-5.056,18.902-3.375c5.891,1.175,11.559-2.819,12.348-8.724c1.544-11.552,11.501-20.263,23.161-20.263c8.419,0,16.226,4.576,20.371,11.941c2.406,4.275,6.992,6.727,11.666,6.519c1.078-0.048,2.162-0.237,3.224-0.578c8.9-2.855,18.148,1.875,21.551,10.09c2.276,5.495,8.301,8.367,14.014,6.679c5.628-1.663,11.172,2.635,11.395,8.185c0.205,5.113-3.862,9.294-8.912,9.294h-67.839c-4.143,0-7.5,3.358-7.5,7.5s3.357,7.5,7.5,7.5h67.839C501.656,478.783,512.525,467.528,511.98,453.889z M343.666,198.842c1.523-3.043,5.855-3.031,7.371,0c2.893,5.786,24.754,49.508,33.149,66.299l-26.435,27.01c-0.641,0.653-1.682,0.697-2.374,0.102l-16.021-13.786c-7.153-6.157-17.969-5.191-23.918,2.145l-8.589,10.595c-0.628,0.776-1.782,0.868-2.527,0.18l-4.737-4.382C329.317,227.541,328.55,229.075,343.666,198.842z M85.864,353.819l20.472,40.944l-10.889,11.126l-12.005-10.33c-5.353-4.606-12.871-4.541-18.063-0.774L85.864,353.819z M30.883,463.783l21.909-43.819c10.749,2.692,15.566-5.822,21.189-12.757l11.976,10.305c5.82,5.009,14.58,4.623,19.942-0.854l7.535-7.699l27.413,54.824L30.883,463.783L30.883,463.783z M194.425,463.783h-36.807l-50.427-100.854l61.426-122.85c0.883-1.765,3.381-1.766,4.264,0.001c7.01,14.02,27.012,14.005,34.016,0l34.863-69.729c0.883-1.765,3.38-1.765,4.263,0l0,0l47.56,95.119C289.333,273.966,202.624,447.386,194.425,463.783z M454.524,413.712c-2.441,0.063-4.855,0.398-7.212,1.002c-7.014-11.22-19.342-18.062-32.54-18.062c-17.6,0-32.837,12.088-37.15,28.777c-4.936-0.111-9.909,1.151-14.337,3.832c-3.476-0.86-7.141-0.962-10.666-0.295c-5.44-7.733-14.369-12.438-23.91-12.438c-12.809,0-24,8.346-27.832,20.292c-10.777,0.654-19.562,9.577-19.719,20.661v0.001c-0.029,2.058,0.302,4.373,0.862,6.299h-70.822L292.6,300.976l1.538,1.423c0,0,0,0,0.001,0c7.09,6.558,18.279,5.76,24.365-1.746l8.589-10.594c0.621-0.765,1.737-0.862,2.481-0.223l16.022,13.787c6.672,5.74,16.722,5.309,22.878-0.98l22.811-23.308l67.26,134.519C457.227,413.725,455.862,413.677,454.524,413.712z"/>
		<path d="M137.829,158.322c16.641,0,31.833-9.141,39.648-23.854c1.942-3.658,0.552-8.199-3.106-10.143s-8.198-0.552-10.143,3.105c-5.205,9.802-15.321,15.89-26.399,15.89c-16.472,0-29.873-13.401-29.873-29.873s13.401-29.873,29.873-29.873c11.078,0,21.193,6.088,26.399,15.89c1.942,3.657,6.483,5.049,10.143,3.105c3.658-1.943,5.049-6.483,3.106-10.143c-7.814-14.714-23.007-23.854-39.648-23.854c-24.743,0-44.874,20.13-44.874,44.874S113.086,158.322,137.829,158.322z"/>
	</symbol>

	<symbol xmlns="http://www.w3.org/2000/svg" version="1" viewBox="0 0 411.287 411.287" shape-rendering="geometricPrecision" text-rendering="geometricPrecision" image-rendering="optimizeQuality" fill-rule="evenodd" clip-rule="evenodd" id="milk-products">
		<path d="M230.789,102.56c16.934,4.068,39.322,6.31,63.04,6.31s46.105-2.241,63.04-6.31c6.036-1.451,11.188-3.085,15.469-4.913v15.846c-1.459,1.568-7.658,5.392-23.516,8.693c-15.186,3.163-34.716,4.904-54.992,4.904c-26.479,0-51.553-3.002-67.071-8.03c-4.2-1.361-8.714,0.941-10.076,5.145s0.941,8.714,5.145,10.076c17.278,5.599,43.522,8.81,72.003,8.81c23.717,0,46.104-2.241,63.039-6.311c2.116-0.509,4.123-1.04,6.022-1.594l-9.659,58.25c-0.723,4.358,2.226,8.479,6.584,9.201c0.443,0.073,0.884,0.108,1.318,0.108c3.843,0,7.233-2.776,7.883-6.692l11.365-68.542c5.328-3.754,7.955-8.139,7.955-13.208v-34.22c0-10.036-10.294-17.389-31.469-22.477c-16.934-4.069-39.322-6.311-63.04-6.311s-46.106,2.241-63.04,6.311c-21.176,5.088-31.47,12.44-31.47,22.477S209.613,97.471,230.789,102.56z M238.835,72.199c15.187-3.162,34.717-4.903,54.994-4.903s39.808,1.741,54.994,4.903c13.571,2.826,20.067,6.034,22.573,7.884c-2.506,1.85-9.003,5.057-22.574,7.883c-15.187,3.162-34.717,4.903-54.993,4.903s-39.808-1.741-54.994-4.903c-13.571-2.826-20.068-6.034-22.574-7.883C218.766,78.233,225.263,75.025,238.835,72.199z M353.888,217.121c-0.585-0.22-1.08-0.414-1.503-0.579c-2.726-1.066-8.402-3.287-12.997,3.092c-0.321,0.447-0.625,0.869-1.193,1.476c-3.699,3.936-15.286,7.92-30.273,7.92c-19.048,0-29.67-6.101-30.852-8.642c0.252-0.455,1.17-1.563,3.384-2.875c3.018-1.787,4.52-5.332,3.703-8.743c-0.815-3.412-3.758-5.894-7.258-6.123c-9.094-0.594-18.457-0.896-27.831-0.896c-70.096,0-141.055,17.042-141.055,49.615v110.305c0,32.573,70.959,49.616,141.055,49.616s141.056-17.043,141.056-49.616V251.366C390.124,233.468,367.422,222.229,353.888,217.121z M374.124,361.671c0,5.239-8.736,14.091-33.359,21.792c-24.379,7.625-56.943,11.824-91.696,11.824c-34.752,0-67.317-4.199-91.695-11.824c-24.623-7.701-33.359-16.553-33.359-21.792v-86.022c24.881,16.706,75.188,25.333,125.055,25.333c49.868,0,100.175-8.627,125.056-25.334V361.671z M160.173,274.008c3.613-2.386,12.128-5.547,24.899-5.547c15.318,0,24.512,4.547,26.472,6.851c-1.318,1.494-6.263,4.615-16.03,6.103C182.624,279.596,170.691,277.107,160.173,274.008z M364.301,262.953c-0.262-4.182-3.736-7.492-7.984-7.492h-2.012c-4.418,0-8,3.582-8,8c0,2.727,1.363,5.134,3.446,6.578c-2.727,1.053-5.717,2.096-8.987,3.118c-24.378,7.625-56.943,11.824-91.696,11.824c-8.234,0-16.347-0.235-24.255-0.697c1.939-2.711,2.968-5.727,2.968-8.962c0-15.009-21.484-22.861-42.708-22.861c-17.617,0-35.414,5.411-40.954,15.834c-14.597-6.331-20.105-12.769-20.105-16.929c0-3.802,4.601-9.506,16.535-15.292c0.444,3.996,3.835,7.104,7.95,7.104h2.012c4.418,0,8-3.582,8-8c0-2.044-0.767-3.908-2.027-5.322c0.294-0.095,0.591-0.188,0.89-0.281c24.379-7.625,56.943-11.824,91.695-11.824c4.064,0,8.124,0.059,12.159,0.176c-0.152,0.917-0.205,1.744-0.205,2.449c0,16.186,23.594,24.653,46.899,24.653c17.985,0,33.777-4.771,41.477-12.493c14.397,5.634,24.726,13.464,24.726,18.83C374.124,254.351,371.29,258.506,364.301,262.953z M233.733,233.703c0,4.418-3.582,8-8,8h-2.014c-4.418,0-8-3.582-8-8s3.582-8,8-8h2.014C230.151,225.703,233.733,229.285,233.733,233.703z M278.676,265.674c0,4.418-3.582,8-8,8h-2.013c-4.418,0-8-3.582-8-8s3.582-8,8-8h2.013C275.094,257.674,278.676,261.256,278.676,265.674z M151.834,185.931v-33.247c0-13.372-1.772-23.268-6.118-34.157c-1.637-4.104,0.362-8.758,4.466-10.396c4.104-1.639,8.757,0.362,10.396,4.466c5.087,12.748,7.257,24.736,7.257,40.087v33.247c0,4.418-3.582,8-8,8S151.834,190.349,151.834,185.931z M86.642,369.803c-18.015,0-32.67-13.827-32.67-30.822V149.862c0-23.226,5.65-34.455,15.013-53.061c0.515-1.023,1.043-2.074,1.584-3.153h97.585c0.541,1.08,1.069,2.131,1.585,3.155c9.36,18.604,15.011,29.834,15.011,53.059v28.545c0,4.418,3.582,8,8,8s8-3.582,8-8v-28.545c0-27.023-7.013-40.96-16.718-60.25c-1.19-2.366-2.42-4.809-3.686-7.371c-0.041-0.087-0.084-0.174-0.128-0.259c-3.739-7.577-7.798-16.205-12.13-26.976l-0.001-2.356c3.566-3.958,5.739-9.195,5.739-14.93V22.326C173.827,10.016,163.811,0,151.501,0H87.219C74.909,0,64.894,10.016,64.894,22.326v12.54l-21.061-8.665c-4.083-1.679-8.761,0.268-10.442,4.354c-1.681,4.086,0.269,8.761,4.354,10.442l23.399,9.627L24.941,73.134c-3.753,2.333-4.903,7.266-2.57,11.018c2.332,3.752,7.266,4.904,11.018,2.57L65.73,66.614c-2.523,5.688-4.937,10.729-7.229,15.376c-0.041,0.08-0.081,0.161-0.12,0.243c-1.267,2.563-2.497,5.009-3.688,7.377c-9.707,19.29-16.72,33.229-16.72,60.252V338.98c0,25.818,21.833,46.822,48.67,46.822c4.418,0,8-3.582,8-8S91.06,369.803,86.642,369.803z M80.894,22.326c0-3.488,2.838-6.326,6.325-6.326h64.281c3.488,0,6.326,2.838,6.326,6.326v15.395c0,1.957-0.894,3.71-2.294,4.872c-0.167,0.116-0.33,0.238-0.488,0.366c-1.012,0.688-2.231,1.089-3.544,1.089H87.219c-1.301,0-2.511-0.395-3.517-1.07c-0.173-0.142-0.351-0.274-0.533-0.4c-1.39-1.161-2.275-2.907-2.275-4.856V22.326z M85.869,60.008c0.447,0.026,0.896,0.04,1.351,0.04h64.281c0.454,0,0.906-0.014,1.354-0.041c2.606,6.529,5.148,12.369,7.569,17.642H78.298C80.72,72.376,83.262,66.537,85.869,60.008z"/>
	</symbol>

	<symbol xmlns="http://www.w3.org/2000/svg" version="1" viewBox="0 0 512.004 512" shape-rendering="geometricPrecision" text-rendering="geometricPrecision" image-rendering="optimizeQuality" fill-rule="evenodd" clip-rule="evenodd" id="warranty">
		<path d="m490.925781 213.90625-6.585937-4.925781c-8.203125-6.140625-11.113282-17.007813-7.082032-26.425781l3.242188-7.558594c6.585938-15.378906 5.566406-32.507813-2.796875-46.992188-8.367187-14.488281-22.6875-23.9375-39.300781-25.917968l-8.164063-.976563c-10.175781-1.214844-18.132812-9.171875-19.347656-19.34375l-.972656-8.167969c-1.984375-16.609375-11.433594-30.933594-25.917969-39.296875-14.488281-8.367187-31.617188-9.386719-46.992188-2.796875l-7.5625 3.238282c-9.417968 4.035156-20.285156 1.121093-26.425781-7.082032l-4.925781-6.582031c-10.023438-13.394531-25.363281-21.07421875-42.09375-21.07421875s-32.070312 7.67968775-42.09375 21.07421875l-4.929688 6.582031c-6.140624 8.207032-17.003906 11.117188-26.425781 7.082032l-7.558593-3.238282c-15.378907-6.585937-32.507813-5.570312-46.992188 2.796875-14.488281 8.363281-23.9375 22.6875-25.917969 39.296875l-.976562 8.164063c-1.214844 10.175781-9.171875 18.132812-19.347657 19.347656l-8.164062.976563c-16.609375 1.980468-30.933594 11.429687-39.296875 25.917968-8.367187 14.484375-9.382813 31.613282-2.796875 46.992188l3.238281 7.558594c4.035157 9.417968 1.121094 20.285156-7.082031 26.425781l-6.582031 4.925781c-13.390625 10.023438-21.074219 25.367188-21.074219 42.09375 0 16.730469 7.683594 32.074219 21.074219 42.097656l6.585937 4.925782c8.203125 6.140624 11.113282 17.007812 7.082032 26.425781l-3.242188 7.558593c-6.585938 15.378907-5.566406 32.507813 2.796875 46.992188 8.367187 14.488281 22.6875 23.9375 39.300781 25.917969l8.164063.976562c10.175781 1.214844 18.132812 9.171875 19.347656 19.34375l.972656 8.167969c1.984375 16.609375 11.433594 30.933594 25.917969 39.296875 14.488281 8.363281 31.617188 9.382813 46.992188 2.796875l7.5625-3.238281c9.417968-4.035157 20.285156-1.121094 26.425781 7.082031l4.925781 6.582031c10.023438 13.394531 25.367188 21.078125 42.097656 21.078125 16.726563 0 32.070313-7.683594 42.09375-21.078125l4.925782-6.582031c6.140624-8.203125 17.003906-11.117188 26.429687-7.078125l7.558594 3.234375c15.375 6.585938 32.503906 5.570312 46.992187-2.792969 14.484375-8.367187 23.933594-22.691406 25.917969-39.300781l.972656-8.164062c1.214844-10.175782 9.171875-18.132813 19.347657-19.347657l8.164062-.972656c16.609375-1.984375 30.9375-11.433594 39.300781-25.917969 8.363281-14.488281 9.382813-31.617187 2.792969-46.996094l-3.234375-7.554687c-4.035156-9.421875-1.125-20.289063 7.082031-26.429687l6.582032-4.925782c13.394531-10.023437 21.074218-25.367187 21.074218-42.09375-.003906-16.730468-7.6875-32.074218-21.078125-42.097656zm-11.984375 68.179688-6.582031 4.925781c-15.621094 11.6875-21.167969 32.378906-13.480469 50.316406l3.234375 7.554687c4.082031 9.527344 3.449219 20.140626-1.730469 29.117188-5.183593 8.980469-14.058593 14.832031-24.351562 16.0625l-8.164062.972656c-19.375 2.3125-34.519532 17.460938-36.832032 36.835938l-.976562 8.164062c-1.230469 10.292969-7.082032 19.167969-16.058594 24.351563-8.976562 5.179687-19.589844 5.8125-29.117188 1.730469l-7.558593-3.238282c-17.9375-7.683594-38.625-2.136718-50.316407 13.484375l-4.925781 6.582031c-6.210937 8.296876-15.71875 13.058594-26.082031 13.058594-10.367188 0-19.875-4.761718-26.085938-13.058594l-4.925781-6.582031c-8.167969-10.917969-20.730469-16.914062-33.675781-16.914062-5.582031 0-11.234375 1.117187-16.636719 3.429687l-7.558593 3.238282c-9.53125 4.082031-20.140626 3.449218-29.121094-1.730469-8.976563-5.183594-14.828125-14.058594-16.058594-24.351563l-.972656-8.164062c-2.316406-19.375-17.460938-34.519532-36.835938-36.832032l-8.164062-.976562c-10.292969-1.230469-19.167969-7.082031-24.351563-16.058594-5.179687-8.976562-5.8125-19.589844-1.730469-29.117187l3.238282-7.558594c7.683594-17.933594 2.136718-38.625-13.480469-50.316406l-6.585937-4.925781c-8.296876-6.210938-13.054688-15.71875-13.054688-26.085938 0-10.363281 4.757812-19.871094 13.058594-26.082031l6.582031-4.925781c15.621094-11.691407 21.167969-32.382813 13.480469-50.316407l-3.234375-7.558593c-4.082031-9.527344-3.449219-20.140626 1.730469-29.117188 5.183593-8.976562 14.058593-14.828125 24.351562-16.058594l8.164062-.976562c19.375-2.3125 34.519532-17.457032 36.832032-36.832032l.976562-8.164062c1.230469-10.292969 7.082032-19.167969 16.058594-24.351562 8.976562-5.183594 19.589844-5.8125 29.117188-1.730469l7.558593 3.234375c17.933594 7.683594 38.625 2.140625 50.316407-13.480469l4.925781-6.582031c6.210937-8.296875 15.71875-13.058594 26.082031-13.058594s19.871094 4.761719 26.082031 13.058594l4.929688 6.585937c11.6875 15.621094 32.382812 21.164063 50.3125 13.480469l7.558593-3.238281c9.527344-4.082031 20.140626-3.449219 29.117188 1.730469 8.976562 5.183593 14.832031 14.058593 16.058594 24.351562l.976562 8.164062c2.3125 19.375 17.460938 34.519532 36.832032 36.832032l8.164062.976562c10.292969 1.230469 19.167969 7.082032 24.351562 16.058594 5.183594 8.976562 5.8125 19.589844 1.734376 29.117188l-3.238282 7.558593c-7.683594 17.9375-2.140625 38.625 13.480469 50.316407l6.582031 4.925781c8.300782 6.210937 13.058594 15.71875 13.058594 26.085937 0 10.363282-4.757812 19.871094-13.058594 26.082032zm0 0"/>
		<path d="m256 58.121094c-30.167969 0-59.136719 6.617187-86.097656 19.667968-4.972656 2.40625-7.050782 8.386719-4.648438 13.355469 2.40625 4.972657 8.390625 7.050781 13.359375 4.644531 24.222657-11.722656 50.257813-17.667968 77.386719-17.667968 98.082031 0 177.878906 79.796875 177.878906 177.882812 0 98.082032-79.796875 177.878906-177.878906 177.878906-98.085938 0-177.882812-79.796874-177.882812-177.878906 0-40.175781 13.066406-78.082031 37.789062-109.625 3.40625-4.347656 2.644531-10.632812-1.703125-14.042968-4.347656-3.40625-10.632813-2.640626-14.039063 1.703124-27.503906 35.101563-42.042968 77.273438-42.042968 121.964844 0 109.109375 88.769531 197.878906 197.878906 197.878906s197.878906-88.769531 197.878906-197.878906c0-109.113281-88.769531-197.882812-197.878906-197.882812zm0 0"/>
		<path d="m109.789062 205.085938-7.617187 9.710937c-3.410156 4.347656-2.648437 10.632813 1.695313 14.039063 4.347656 3.410156 10.632812 2.652343 14.039062-1.695313l4.183594-5.328125v66.136719h-6.695313c-5.523437 0-10 4.476562-10 10 0 5.523437 4.476563 10 10 10h33.046875c5.519532 0 10-4.476563 10-10 0-5.523438-4.480468-10-10-10h-6.351562v-76.691407c0-5.523437-4.480469-10-10-10h-14.433594c-3.070312 0-5.972656 1.410157-7.867188 3.828126zm0 0"/>
		<path d="m190.148438 307.949219h5.195312c16.515625 0 29.949219-13.433594 29.949219-29.949219v-48.472656c0-16.515625-13.4375-29.953125-29.949219-29.953125h-5.195312c-16.515626 0-29.949219 13.4375-29.949219 29.953125v48.472656c0 16.515625 13.433593 29.949219 29.949219 29.949219zm-9.949219-78.421875c0-5.488282 4.464843-9.953125 9.949219-9.953125h5.195312c5.484375 0 9.949219 4.464843 9.949219 9.953125v48.472656c0 5.484375-4.464844 9.949219-9.949219 9.949219h-5.195312c-5.484376 0-9.949219-4.464844-9.949219-9.949219zm0 0"/>
		<path d="m270.738281 307.949219c16.515625 0 29.949219-13.433594 29.949219-29.949219v-48.472656c0-16.515625-13.4375-29.953125-29.949219-29.953125h-5.195312c-16.515625 0-29.949219 13.4375-29.949219 29.953125v48.472656c0 16.515625 13.433594 29.949219 29.949219 29.949219zm-15.144531-29.949219v-48.472656c0-5.488282 4.464844-9.953125 9.949219-9.953125h5.195312c5.484375 0 9.949219 4.464843 9.949219 9.953125v48.472656c0 5.484375-4.464844 9.949219-9.949219 9.949219h-5.195312c-5.484375 0-9.949219-4.460938-9.949219-9.949219zm0 0"/>
		<path d="m402.800781 198.359375c-4.464843-3.246094-10.71875-2.257813-13.96875 2.207031l-63.539062 87.378906c-3.25 4.46875-2.261719 10.722657 2.207031 13.96875 1.773438 1.289063 3.832031 1.914063 5.871094 1.914063 3.089844 0 6.140625-1.429687 8.097656-4.121094l63.539062-87.378906c3.25-4.464844 2.257813-10.71875-2.207031-13.96875zm0 0"/>
		<path d="m165.929688 160.277344c2.332031 0 4.675781-.8125 6.570312-2.464844 23.117188-20.1875 52.769531-31.304688 83.5-31.304688 28.75 0 55.863281 9.367188 78.410156 27.085938 4.34375 3.414062 10.628906 2.660156 14.042969-1.683594 3.410156-4.339844 2.65625-10.628906-1.683594-14.039062-26.109375-20.519532-57.496093-31.363282-90.769531-31.363282-35.566406 0-69.894531 12.871094-96.652344 36.238282-4.160156 3.632812-4.589844 9.949218-.957031 14.109375 1.976563 2.265625 4.75 3.421875 7.539063 3.421875zm0 0"/>
		<path d="m164.089844 369.175781c26.101562 20.515625 57.492187 31.359375 90.765625 31.359375 23.085937 0 45.1875-5.203125 65.695312-15.460937 4.9375-2.46875 6.9375-8.476563 4.46875-13.417969-2.472656-4.9375-8.476562-6.9375-13.417969-4.46875-17.703124 8.859375-36.796874 13.347656-56.746093 13.347656-28.746094 0-55.863281-9.363281-78.410157-27.085937-4.339843-3.410157-10.628906-2.65625-14.039062 1.683593-3.414062 4.34375-2.660156 10.628907 1.683594 14.042969zm0 0"/>
		<path d="m354.199219 352.070312c-2.210938-3.3125-6.351563-5.03125-10.261719-4.25-4.148438.832032-7.414062 4.300782-7.964844 8.5-.539062 4.078126 1.578125 8.183594 5.203125 10.121094 3.640625 1.949219 8.21875 1.414063 11.324219-1.308594 3.734375-3.285156 4.398438-8.933593 1.699219-13.0625zm0 0"/>
		<path d="m337.222656 196.449219c-12.976562 0-23.535156 10.554687-23.535156 23.53125 0 12.976562 10.558594 23.535156 23.535156 23.535156 12.972656 0 23.53125-10.558594 23.53125-23.535156 0-12.976563-10.558594-23.53125-23.53125-23.53125zm0 27.066406c-1.949218 0-3.535156-1.585937-3.535156-3.535156s1.585938-3.535157 3.535156-3.535157c1.949219 0 3.53125 1.585938 3.53125 3.535157s-1.582031 3.535156-3.53125 3.535156zm0 0"/>
		<path d="m369.191406 280.925781c0 12.976563 10.558594 23.535157 23.53125 23.535157 12.976563 0 23.535156-10.558594 23.535156-23.535157 0-12.976562-10.558593-23.535156-23.535156-23.535156-12.972656 0-23.53125 10.558594-23.53125 23.535156zm27.066406 0c0 1.949219-1.582031 3.535157-3.53125 3.535157-1.949218 0-3.535156-1.585938-3.535156-3.535157s1.585938-3.535156 3.535156-3.535156c1.949219 0 3.53125 1.585937 3.53125 3.535156zm0 0"/>
		<path d="m129.472656 113.453125c1.609375 3.863281 5.539063 6.355469 9.71875 6.160156 4.125-.195312 7.75-3.015625 9.023438-6.929687 1.285156-3.953125-.113282-8.46875-3.425782-10.988282-3.378906-2.570312-8.097656-2.71875-11.636718-.378906-3.945313 2.605469-5.460938 7.789063-3.679688 12.136719zm0 0"/>
	</symbol>

	<symbol xmlns="http://www.w3.org/2000/svg" version="1" viewBox="1 -66 511.99852 511" shape-rendering="geometricPrecision" text-rendering="geometricPrecision" image-rendering="optimizeQuality" fill-rule="evenodd" clip-rule="evenodd" id="cheese">
		<path d="m504.34375 167.835938-.246094-.035157c-.097656-.019531-.1875-.082031-.28125-.089843l-47.113281-6.191407-.015625-92.207031c0-.0625.027344-.140625.027344-.140625 0-.160156-.027344-.25-.027344-.355469v-.222656c-.007812-.269531-.070312-.527344-.085938-.800781-.0625-.96875-.140624-1.941407-.335937-2.894531-.046875-.210938-.125-.421876-.167969-.632813-.238281-1.050781-.53125-2.09375-.925781-3.125-.035156-.078125-.082031-.160156-.105469-.238281-14.457031-36.464844-123.941406-60.402344-226.699218-60.402344-110.296876.007812-228.367188 27.574219-228.367188 68.605469 0 .132812.0351562.265625.0351562.390625l-.0351562 160.347656c0 38.113281 105.027344 71.542969 224.757812 71.542969l4.675782-.035157c4.832031-.050781 8.714844-3.984374 8.714844-8.820312v-59.34375c9.515624 3.167969 23.40625 7.824219 35.28125 11.820312v73.042969c0 2.0625.722656 4.0625 2.035156 5.652344l44.105468 52.921875c.085938.109375.226563.140625.316407.25.097656.105469.140625.253906.238281.359375.503906.496094 1.128906.785156 1.71875 1.148437.335938.203126.609375.484376.972656.640626 1.101563.488281 2.292969.777343 3.527344.777343h.042969c71.5625-.335937 138.703125-8.695312 179.585937-22.367187 3.589844-1.199219 6.027344-4.578125 6.027344-8.363282v-172.492187c.015625-4.429687-3.261719-8.167969-7.65625-8.742187zm-173.589844 21.777343-23.921875-27.640625 97.695313 10.53125.0625.007813h.011718l19.722657 2.585937 30.457031 4.003906c-35.097656 6.296876-78.433594 10.042969-124.027344 10.511719zm108.300782-30.414062-24.488282-3.21875v-33.773438c9.535156-3.828125 17.828125-10.019531 24.480469-17.242187zm-226.074219-35.308594c-121.546875-2.214844-194.941407-38.34375-195.3125-54.652344v-.210937c.433593-17.871094 87.605469-50.886719 210.679687-50.886719 98.96875 0 174.691406 21.347656 200.792969 38.890625.308594.210938.652344.421875.953125.636719.296875.210937.554688.414062.835938.625 4.332031 3.191406 7.023437 6.246093 7.84375 9.003906.078124.292969.105468.566406.148437.847656.042969.265625.105469.527344.113281.777344v.335937c-.140625 6.570313-11.058594 28.851563-30.933594 36.761719l-216.589843-45.160156-1.851563-.386719c-.21875-.046875-.449218-.011718-.667968-.039062-2.859376-.378906-5.613282.65625-7.542969 2.726562-.300781.316406-.644531.589844-.898438.960938-1.007812 1.472656-1.527343 3.175781-1.546875 4.886718-.015625 1.703126.460938 3.421876 1.429688 4.914063zm7.535156 159.839844c-126.335937-.804688-202.875-37.601563-202.875-53.886719l.027344-134.089844c34.558593 25.667969 115.453125 45.222656 202.847656 45.847656zm17.640625-68.75v-82.164063c0-.09375-.035156-.183594-.042969-.289062-.011719-.316406-.097656-.617188-.132812-.933594-.070313-.476562-.105469-.964844-.246094-1.429688-.117187-.378906-.335937-.734374-.503906-1.09375-.167969-.363281-.28125-.742187-.492188-1.074218l-29.867187-45.859375 190.058594 40.1875v31.339843l-113.097657-14.863281c-.125-.019531-.246093.015625-.371093.007813l-.054688-.007813c-.273438-.035156-.535156.027344-.808594.007813-.425781-.015625-.847656-.015625-1.269531.019531-.488281.050781-.945313.15625-1.414063.289063-.246093.070312-.492187.0625-.742187.148437-.15625.0625-.28125.175781-.429687.246094-.425782.1875-.804688.425781-1.199219.671875-.371094.238281-.722657.464844-1.050781.75-.328126.28125-.609376.609375-.890626.941406-.292968.34375-.566406.679688-.804687 1.058594-.085937.152344-.226563.257812-.308594.40625-.132812.257812-.167969.53125-.28125.785156-.175781.40625-.328125.8125-.441406 1.246094-.113281.457031-.167969.898437-.210937 1.355468-.019532.292969-.117188.546876-.117188.820313v78.839844c-17.085938-5.722657-28.058594-9.351563-35.28125-11.40625zm52.921875 23.683593v-67.441406l26.464844 30.582032v144.816406l-26.464844-31.761719zm44.105469 123.398438v-154.878906c62.042968-.917969 119.914062-7.859375 159.191406-18.980469v154.402344c-37.882812 11.433593-96.222656 18.578125-159.191406 19.457031zm0 0"/>
	</symbol>

	<symbol xmlns="http://www.w3.org/2000/svg" version="1" viewBox="0 0 512 512" shape-rendering="geometricPrecision" text-rendering="geometricPrecision" image-rendering="optimizeQuality" fill-rule="evenodd" clip-rule="evenodd" id="ecology">
		<path d="m386.115 294.516c23.857-26.178 39.106-58.469 44.101-93.383.013-.093.024-.187.034-.28 1.153-8.121 1.75-16.418 1.75-24.853 0-32.63-8.926-63.215-24.464-89.441-.135-.307-.289-.608-.464-.9-15.288-25.512-36.951-46.904-62.649-61.863-11.307-6.582-23.305-11.853-35.746-15.745-16.64-5.23-34.335-8.051-52.677-8.051-82.416 0-151.782 56.942-170.824 133.55-.058.181-.111.365-.156.552-2.263 9.264-3.767 18.74-4.5 28.306-.003.044-.007.087-.01.131-.025.331-.049.661-.073.992-.004.061-.008.121-.013.182-.02.291-.04.582-.058.873-.005.078-.01.156-.015.235-.017.278-.034.555-.05.833-.006.103-.012.206-.018.309-.016.284-.031.567-.046.851-.006.118-.012.235-.018.353-.013.254-.025.508-.036.761-.005.116-.01.232-.015.348-.011.243-.021.486-.03.729-.004.104-.008.209-.012.313-.011.286-.021.572-.03.858-.004.109-.007.219-.01.329-.009.298-.018.596-.026.894-.002.072-.003.144-.005.216-.007.282-.013.564-.019.846-.001.062-.003.124-.004.186-.006.318-.011.636-.015.955-.001.076-.002.152-.003.229-.004.321-.007.643-.009.964 0 .06-.001.12-.001.18-.003.341-.004.683-.004 1.025 0 .341.001.681.003 1.021.001.099.001.197.002.296.002.266.004.532.008.797.001.08.002.16.003.24.01.725.023 1.45.042 2.175v.014c.874 34.563 11.715 67.673 31.488 96.022 20.164 28.911 48.127 50.9 80.866 63.59.242.094.487.175.734.244 19.528 7.493 40.72 11.601 62.854 11.601 14.241 0 28.092-1.701 41.362-4.909.179-.031.358-.068.536-.111 34.001-8.304 64.506-26.446 88.217-52.464zm-78.525-237.041-12.255-6.695c-3.575-1.953-7.487-2.937-11.416-2.937-3.233 0-6.478.667-9.55 2.008-6.807 2.971-11.755 8.804-13.577 16.006l-.057.225c-.881 3.484-4.006 5.917-7.601 5.917h-28.674c-4.269 0-7.786-3.473-7.839-7.741l-.544-43.008c13.243-3.439 26.918-5.202 40.698-5.246 15.03.071 29.921 2.258 44.214 6.434 37.504 11.006 69.336 35.409 89.937 67.65l-20.93 38.426c-1.839 3.378-5.833 4.97-9.49 3.784l-35.082-11.36c-3.245-1.051-5.425-4.048-5.425-7.459v-35.083c.001-8.723-4.754-16.739-12.409-20.921zm-97.55 271.798 22.93-22.93c4.533-4.533 7.03-10.56 7.03-16.971v-35.454c0-5.726-2.052-11.272-5.778-15.619l-9.862-11.506-12.148 10.412 9.862 11.506c1.242 1.449 1.926 3.298 1.926 5.206v35.454c0 2.137-.832 4.146-2.343 5.657l-28.227 28.227c-56.604-24.143-96.561-80.003-97.416-145.126-.001-.063-.001-.127-.002-.19-.003-.251-.005-.502-.007-.753-.001-.084-.001-.169-.002-.253-.002-.31-.003-.621-.003-.933 0-.34.001-.68.003-1.019.001-.132.003-.265.004-.397.002-.209.003-.418.006-.627.002-.154.005-.308.007-.462.003-.184.005-.368.009-.551.003-.185.008-.37.012-.555.003-.154.006-.308.01-.461.005-.178.01-.356.015-.534.005-.163.009-.326.014-.489.005-.162.011-.324.017-.486.006-.179.012-.358.019-.536.006-.158.013-.315.019-.473.007-.181.014-.362.022-.543.006-.133.012-.266.019-.4.01-.215.02-.43.031-.645.004-.088.01-.177.014-.265.013-.254.027-.507.041-.76.004-.064.008-.128.011-.193.017-.285.034-.57.052-.855.001-.012.002-.025.002-.037.471-7.383 1.445-14.631 2.888-21.71h24.716c3.553 0 6.716 2.386 7.692 5.802l9.369 32.791c2.928 10.247 12.418 17.405 23.077 17.405h12.572c2.338 0 4.552 1.018 6.074 2.794l15.782 18.412 12.148-10.413-15.782-18.412c-4.565-5.327-11.207-8.381-18.222-8.381h-12.572c-3.553 0-6.716-2.386-7.692-5.802l-9.369-32.791c-2.928-10.249-12.418-17.407-23.077-17.407h-20.577c14.823-47.036 50.831-84.764 96.782-101.94l.486 38.401c.165 12.98 10.858 23.539 23.838 23.539h28.674c10.929 0 20.433-7.4 23.113-17.997l.057-.225c.599-2.368 2.226-4.287 4.465-5.263 2.238-.978 4.751-.866 6.895.305l12.255 6.695c2.517 1.375 4.081 4.012 4.081 6.88v35.083c0 10.371 6.629 19.485 16.495 22.681l35.082 11.36c2.439.79 4.927 1.169 7.384 1.168 8.596 0 16.794-4.64 21.086-12.521l16.105-29.568c10.153 21.006 15.848 44.552 15.848 69.402 0 5.399-.27 10.737-.794 16h-41.329c-11.867 0-22.081 8.859-23.759 20.606l-1.466 10.259 15.839 2.263 1.466-10.259c.56-3.916 3.964-6.869 7.92-6.869h38.908c-11.65 57.163-53.874 103.341-108.785 120.645v-38.095c0-3.205 1.903-6.091 4.849-7.353l38.038-16.302c7.647-3.277 13.128-10.43 14.304-18.665l1.014-7.097-15.839-2.264-1.014 7.097c-.392 2.745-2.219 5.129-4.768 6.222l-38.038 16.302c-8.837 3.788-14.546 12.447-14.546 22.06v42.235c-10.342 2.108-21.044 3.215-32 3.215-15.968 0-31.397-2.352-45.96-6.727z"/>
		<path d="m304 208h16v16h-16z"/>
		<path d="m176 104h16v16h-16z"/>
		<path d="m135.57 351.25-27.651-24.886c-12.323-11.091-29.719-13.155-43.919-6.412v-71.948c0-14.928-5.854-28.922-16.482-39.404-10.629-10.482-24.688-16.161-39.629-15.933-4.375.061-7.889 3.625-7.889 8v150.667c0 1.307.32 2.594.933 3.749l63.067 118.907v38.01h16v-40c0-1.307-.32-2.594-.933-3.749l-63.067-118.908v-140.004c7.617 1.428 14.634 5.082 20.283 10.653 7.556 7.452 11.717 17.4 11.717 28.012v87.996.012c0 .038 0 .077.001.115 0 .012 0 .024.001.035.001.043.002.086.004.128v.012c.046 1.238.38 2.472 1.011 3.6.009.016.018.032.027.048.015.026.03.053.046.079.013.022.026.044.038.065.014.024.028.047.043.071.017.027.034.054.051.082.011.018.022.035.033.053.029.046.059.092.09.138l32 48 13.312-8.875-28.261-42.392c9.052-7.08 22.068-6.791 30.819 1.085l27.652 24.886c16.784 15.105 25.583 37.549 23.539 60.036l-4.373 48.097c-.022.242-.033.483-.033.725v40h16v-39.637l4.34-47.736c2.498-27.484-8.257-54.915-28.77-73.377z"/>
		<path d="m504.111 192.667c-14.964-.217-29 5.451-39.629 15.933-10.628 10.483-16.482 24.477-16.482 39.404v71.948c-14.201-6.743-31.597-4.678-43.918 6.412l-27.652 24.886c-20.514 18.462-31.269 45.893-28.77 73.377l4.34 47.736v39.637h16v-40c0-.242-.011-.483-.033-.724l-4.373-48.097c-2.044-22.487 6.755-44.931 23.539-60.036l27.652-24.886c8.751-7.876 21.766-8.166 30.819-1.085l-28.261 42.392 13.312 8.875 32-48c.03-.046.06-.091.09-.138.011-.017.022-.035.033-.053.017-.027.034-.054.051-.082.014-.023.028-.047.043-.071.013-.022.026-.043.038-.065.015-.026.031-.053.046-.079.009-.016.018-.032.027-.048.631-1.128.965-2.362 1.011-3.6 0-.004 0-.008 0-.012.002-.043.003-.086.004-.128 0-.012 0-.024.001-.035.001-.038.001-.077.001-.115 0-.004 0-.008 0-.012v-87.996c0-10.612 4.161-20.56 11.717-28.012 5.649-5.572 12.666-9.226 20.283-10.654v140.004l-63.067 118.908c-.613 1.155-.933 2.442-.933 3.749v40h16v-38.01l63.067-118.908c.612-1.155.933-2.441.933-3.749v-150.666c0-4.375-3.514-7.939-7.889-8z"/>
		<path d="m432 32h16v16h-16z"/>
		<path d="m432 64h16v16h-16z"/>
		<path d="m416 48h16v16h-16z"/>
		<path d="m448 48h16v16h-16z"/>
		<path d="m32 112h16v16h-16z"/>
		<path d="m32 144h16v16h-16z"/>
		<path d="m16 128h16v16h-16z"/>
		<path d="m48 128h16v16h-16z"/>
		<path d="m293.564 165.271-1.791-7.164c-1.592-6.366-5.598-11.68-11.28-14.961-5.683-3.283-12.287-4.098-18.597-2.294l-19.018 5.434c-7.452 2.129-13.26 7.522-15.934 14.796-.46 1.25-.813 2.518-1.06 3.793-.045.232-.087.464-.125.696s-.073.465-.104.697c-.047.349-.086.698-.117 1.047-.021.233-.038.466-.052.698-.028.466-.042.931-.042 1.396 0 .232.003.465.01.697.007.226.017.452.03.678.001.014.002.027.002.041.013.214.029.429.047.643.002.02.004.041.005.061.352 3.914 1.684 7.729 3.962 11.145l9.015 13.523c4.004 6.006 10.42 9.859 17.604 10.57.8.079 1.598.118 2.392.118 6.337 0 12.408-2.495 16.944-7.031l11.794-11.794c5.929-5.924 8.348-14.658 6.315-22.789zm-17.626 11.478-11.794 11.794c-1.702 1.701-4.053 2.537-6.445 2.304-.599-.059-1.181-.184-1.739-.369-.14-.046-.277-.096-.414-.15s-.271-.111-.404-.172c-1.328-.61-2.477-1.581-3.311-2.832l-9.015-13.523c-1.433-2.149-1.744-4.772-.853-7.197.892-2.425 2.827-4.222 5.311-4.932l19.019-5.434c.059-.017.117-.033.176-.048.016-.004.031-.008.047-.012.051-.013.102-.026.154-.038.008-.002.016-.004.024-.006.061-.014.122-.027.182-.04.009-.002.019-.004.028-.006.054-.011.109-.022.163-.032.009-.002.018-.003.026-.005.061-.011.123-.021.184-.031.007-.001.014-.002.02-.003.056-.009.113-.017.17-.024l.026-.003c.125-.016.251-.029.376-.039.008-.001.015-.001.023-.002.127-.01.254-.017.381-.02h.016c.262-.007.523-.001.783.017h.005c.13.009.26.022.39.038l.004.001c.129.016.258.035.386.057.003 0 .005.001.008.001.128.022.256.048.383.077.002 0 .003.001.005.001.127.029.253.061.378.096.003.001.006.002.01.003.062.017.124.036.185.055.003.001.005.002.008.002.058.018.116.037.174.056.006.002.012.004.017.006.059.02.118.04.177.062.006.002.013.005.019.007.054.02.107.04.16.061.007.003.014.005.021.008.056.022.113.045.169.069.009.004.019.008.028.012.053.022.105.045.157.069.005.002.01.005.015.007.055.025.11.051.165.077.011.005.022.011.033.016.05.024.101.049.151.075.005.003.011.005.016.008.052.027.104.054.156.082.014.008.029.016.043.023.052.029.105.058.156.088 1.894 1.094 3.229 2.865 3.76 4.987l1.791 7.164c.677 2.708-.129 5.619-2.104 7.595z"/>
	</symbol>

	<symbol xmlns="http://www.w3.org/2000/svg" version="1" viewBox="0 0 511.999 511.999" shape-rendering="geometricPrecision" text-rendering="geometricPrecision" image-rendering="optimizeQuality" fill-rule="evenodd" clip-rule="evenodd" id="water-cycle">
		<path d="M363.239,188.726c-0.031-0.041-0.061-0.081-0.092-0.12L264.352,61.393c-1.89-2.433-4.795-3.859-7.874-3.866
			c-0.008,0-0.016,0-0.023,0c-3.071,0-5.973,1.412-7.868,3.83l-99.23,126.546c-0.178,0.227-0.345,0.46-0.501,0.699
			c-19.885,24.49-30.821,55.309-30.821,86.923c0,76.075,61.891,137.967,137.966,137.967S393.967,351.6,393.967,275.525
			C393.967,243.994,383.058,213.186,363.239,188.726z M256,393.493c-65.048,0-117.968-52.921-117.968-117.969
			c0-27.362,9.58-54.027,26.975-75.083c0.285-0.345,0.544-0.706,0.776-1.079l90.634-115.583l90.704,116.793
			c0.118,0.165,0.241,0.325,0.37,0.483c17.075,20.951,26.478,47.398,26.478,74.469C373.969,340.572,321.048,393.493,256,393.493z"/>
		<path d="M345.958,284.271c-5.375-1.269-10.76,2.062-12.027,7.437c-5.696,24.163-22.84,44.24-45.856,53.708
			c-5.106,2.101-7.544,7.944-5.442,13.051c1.589,3.863,5.317,6.197,9.251,6.197c1.267,0,2.556-0.242,3.801-0.754
			c28.965-11.915,50.54-37.191,57.713-67.613C354.663,290.922,351.332,285.538,345.958,284.271z"/>
		<path d="M345.991,243.708c-5.521,0-9.999,4.477-9.999,9.999v0.203c0,5.522,4.478,9.999,9.999,9.999
			c5.521,0,9.999-4.477,9.999-9.999v-0.203C355.99,248.185,351.512,243.708,345.991,243.708z"/>
		<path d="M378.706,32.936L364.731,8.729c-2.761-4.782-8.873-6.421-13.659-3.66c-4.086,2.359-5.865,7.163-4.58,11.496
			C298.73-1.473,246.34-4.885,196.24,7.156C136.055,21.622,83.195,57.351,47.401,107.764
			C11.955,157.687-4.488,218.587,1.106,279.244c0.478,5.187,4.836,9.082,9.945,9.081c0.308,0,0.618-0.014,0.93-0.043
			c5.499-0.507,9.546-5.375,9.039-10.875C10.344,161.639,87.681,53.816,200.912,26.601c49.349-11.86,101.105-7.451,147.492,12.284
			l-7.562,4.367c-4.783,2.762-6.421,8.876-3.66,13.659c1.853,3.208,5.213,5,8.669,5c1.696,0,3.416-0.432,4.99-1.341l24.206-13.976
			C379.829,43.834,381.468,37.718,378.706,32.936z"/>
		<path d="M509.718,222.138c-0.735-5.473-5.77-9.317-11.241-8.58c-5.473,0.735-9.314,5.767-8.579,11.241
			c15.471,115.226-57.324,226.166-169.33,258.057c-47.959,13.656-97.711,11.961-144.309-4.833l9.455-5.995
			c4.664-2.958,6.046-9.135,3.09-13.799c-2.957-4.664-9.134-6.046-13.8-3.09L151.4,470.107c-4.661,2.956-6.045,9.128-3.094,13.792
			l14.818,23.411c1.903,3.007,5.144,4.653,8.458,4.653c1.828,0,3.679-0.501,5.338-1.552c3.344-2.116,4.992-5.887,4.578-9.572
			c24.24,7.423,49.15,11.161,74.167,11.161c23.528,0,47.151-3.297,70.38-9.911c59.534-16.95,110.864-54.843,144.535-106.698
			C503.925,344.04,517.825,282.51,509.718,222.138z"/>
		<path d="M135.198,374.995c-0.013-0.017-0.024-0.033-0.037-0.05l-50.949-67.014c-1.887-2.481-4.82-3.94-7.937-3.948
			c-0.008,0-0.016,0-0.023,0c-3.107,0-6.039,1.445-7.932,3.911l-51.174,66.662c-0.119,0.156-0.233,0.313-0.342,0.474
			C5.977,388.731,0.025,405.925,0.025,423.553c0,42.684,34.091,77.41,75.992,77.41s75.992-34.727,75.992-77.41
			C152.009,405.927,146.041,388.695,135.198,374.995z M76.017,480.965c-30.876,0-55.994-25.755-55.994-57.412
			c0-13.355,4.57-26.36,12.869-36.619c0.219-0.271,0.423-0.552,0.61-0.841l42.712-55.639l42.856,56.369
			c0.1,0.139,0.203,0.276,0.311,0.41c8.145,10.209,12.632,23.108,12.632,36.32C132.011,455.21,106.893,480.965,76.017,480.965z"/>
		<path d="M109.014,413.554c-5.521,0-9.999,4.477-9.999,9.999c0,13.072-10.316,23.707-22.998,23.707
			c-5.521,0-9.999,4.477-9.999,9.999s4.478,9.999,9.999,9.999c23.708,0,42.996-19.606,42.996-43.705
			C119.013,418.031,114.536,413.554,109.014,413.554z"/>
		<path d="M495.163,71.011c-0.013-0.017-0.024-0.033-0.037-0.05L444.177,3.948c-1.887-2.481-4.821-3.94-7.937-3.948
			c-0.008,0-0.016,0-0.023,0c-3.107,0-6.038,1.445-7.932,3.911l-51.174,66.662c-0.118,0.153-0.23,0.31-0.339,0.469
			c-10.829,13.701-16.782,30.897-16.782,48.527c0,42.684,34.091,77.41,75.992,77.41c41.902,0,75.992-34.727,75.992-77.41
			C511.974,101.943,506.005,84.711,495.163,71.011z M435.982,176.981c-30.876,0-55.994-25.755-55.994-57.412
			c0-13.355,4.571-26.359,12.868-36.619c0.218-0.27,0.42-0.548,0.606-0.835l42.717-55.645l42.856,56.369
			c0.1,0.139,0.203,0.276,0.311,0.41c8.145,10.209,12.632,23.108,12.632,36.32C491.976,151.227,466.857,176.981,435.982,176.981z"/>
		<path d="M468.978,109.571c-5.521,0-9.999,4.477-9.999,9.999c0,13.072-10.316,23.707-22.998,23.707
			c-5.521,0-9.999,4.477-9.999,9.999c0,5.522,4.478,9.999,9.999,9.999c23.708,0,42.996-19.606,42.996-43.705
			C478.977,114.047,474.5,109.571,468.978,109.571z"/>
	</symbol>

	<symbol xmlns="http://www.w3.org/2000/svg" version="1" viewBox="0 0 512 512" shape-rendering="geometricPrecision" text-rendering="geometricPrecision" image-rendering="optimizeQuality" fill-rule="evenodd" clip-rule="evenodd" id="milk">
		<path d="M48,56V488a8,8,0,0,0,8,8H440a8,8,0,0,0,7.973-7.335l16-192A8,8,0,0,0,456,288H376v-8c0-15.617-7.721-31.509-16.661-49.91-9.955-20.492-21.116-43.473-23.045-70.09H342a10.011,10.011,0,0,0,10-10V122a10.011,10.011,0,0,0-10-10H288V56a8,8,0,0,0-8-8H144V24a8,8,0,0,0-8-8H88a8,8,0,0,0-8,8V48H56A8,8,0,0,0,48,56ZM234,160h5.706c-1.929,26.617-13.09,49.6-23.045,70.09C207.721,248.491,200,264.383,200,280V400H96V160ZM432.639,480H335.361l-12-144H444.639Zm13.333-160H322.028l-1.334-16H447.306ZM360,280v8H312a8,8,0,0,0-7.973,8.665L319.305,480H224a8.009,8.009,0,0,1-8-8V280c0-11.936,6.976-26.293,15.053-42.918,2.028-4.175,4.146-8.537,6.254-13.082H338.693c2.108,4.545,4.226,8.907,6.254,13.082C353.024,253.707,360,268.064,360,280Zm-28.225-72h-87.55c5.719-14.466,10.385-30.483,11.508-48h64.534C321.39,177.517,326.056,193.534,331.775,208ZM336,144H240V128h96ZM96,32h32V48H96ZM64,64H272v48H234a10.011,10.011,0,0,0-10,10v22H88a8,8,0,0,0-8,8V408a8,8,0,0,0,8,8H200v56a23.889,23.889,0,0,0,1.376,8H64Z"/>
	</symbol>


</svg>